<!--?xml version="1.0" encoding="UTF-8" standalone="no"?-->
<svg width="100%" height="100%" viewBox="0 0 3000 1973" version="1.1" xmlns="http://www.w3.org/2000/svg" xmlns:xlink="http://www.w3.org/1999/xlink" xml:space="preserve" xmlns:serif="http://www.serif.com/" style="fill-rule:evenodd;clip-rule:evenodd;stroke-linejoin:round;stroke-miterlimit:1.41421;"><path d="M443.795,1973.6C641.362,1953.44 747.839,1833.01 803.333,1850.79C832.46,1860.12 857.489,1877.1 887.675,1883.95C968.959,1902.39 1057.88,1893.27 1136.59,1867.73C1164.44,1858.69 1197.02,1848.49 1213.96,1822.62C1237.18,1787.17 1220.99,1741.93 1209.69,1705.46C1202.24,1681.43 1179.66,1593 1233.37,1624.54C1291.94,1658.93 1387.06,1767.2 1466.84,1704.19C1499.24,1678.59 1510.64,1621.75 1518.41,1583.75C1521.65,1567.91 1524.16,1551.96 1526.11,1535.93L1525.49,1365.65C1525.17,1274.94 1524.84,1184.23 1524.53,1093.51C1524.23,1007.96 1523.93,922.4 1523.65,836.847C1523.41,763.466 1523.17,690.09 1522.96,616.709C1522.8,562.531 1522.65,508.353 1522.54,454.175C1522.54,301.889 1482.9,293.693 1414.54,280.044C1337.11,264.459 1246.72,223.539 1196.96,183.245C1168.82,160.646 1155.34,188.149 1178.09,208.217C1207.7,234.526 1232.27,250.337 1259.75,263.558C1270.02,268.602 1263.84,274.963 1252.26,274.529C1204.74,273.009 1137.98,245.885 1101.19,229.179C1087.52,223.035 1080.75,241.057 1091.97,250.034C1149.41,295.721 1274.03,311.596 1326.66,311.235C1473.32,310.441 1476.18,378.571 1476.5,492.096C1476.61,526.335 1480.08,572.201 1477.3,621.011C1476.5,634.887 1475.32,653.638 1469.66,664.16L1328.94,958.113C1305.9,1006.01 1187.09,1062.26 1044.07,1011.88C900.999,961.475 865.226,866.768 883.939,801.405L1094.97,63.674C1115.91,-8.923 1271.98,-20.575 1428.65,34.556C1585.3,89.653 1694.95,195.203 1662.34,263.231L1650.62,287.73C1624.58,343.492 1623.37,472.581 1621.97,540.857C1619.42,665.234 1615.76,1314 1613.33,1762.2C1623.22,1805.1 1641.75,1833.53 1675.03,1833.53C1707.45,1833.53 1725.81,1806.1 1735.8,1764.54C1735.72,1432.68 1735.5,1009.36 1734.95,955.234C1733.83,845.568 1726.95,712.653 1742.41,633.671C1746.06,614.905 1747,613.246 1738.65,601.213C1707.12,556.009 1692.68,498.02 1701.9,434.553C1723.13,287.568 1862.88,166.836 2013.85,164.897C2101.47,163.792 2171.66,205.353 2214.69,264.621L2513.8,675.733C2534.63,704.463 2539.01,743.719 2533.11,784.208C2517.85,889.645 2417.38,976.306 2308.68,977.622C2268.11,978.095 2232.17,966.727 2203.76,946.678L1932.87,753.331C1925.39,747.124 1916.96,738.204 1926.54,730.989C1972.98,696.017 2077.58,713.651 2150.03,711.303C2223.81,709.016 2346.41,700.482 2402.69,677.235C2421.85,669.281 2412.64,655.046 2397.7,657.36C2318.74,669.77 2206.84,675.965 2133.09,666.799C2100.69,662.838 2099.31,649.171 2115.88,636.716C2148.68,612.101 2180.37,576.748 2192.41,561.597C2209.66,539.813 2178.45,526.863 2153.28,554.165C2128.9,583.438 2083.22,628.535 2013.23,649.259C1932.54,673.058 1829.04,689.019 1829.04,832.685C1829.04,869.8 1828.85,906.891 1828.64,944.025C1828.52,959.5 1828.5,974.975 1828.45,990.447C1828.35,1021.26 1828.28,1052.07 1828.21,1082.88C1828.11,1125.25 1828.02,1167.62 1827.94,1210C1827.84,1260.3 1827.75,1310.6 1827.66,1360.9C1827.57,1415.5 1827.48,1470.1 1827.4,1524.7L1827.3,1593.43C1830.59,1614.93 1835.45,1636.03 1842.75,1653.83C1849.88,1671.17 1868.9,1710.34 1885.31,1721.49C1900.3,1731.68 1949.22,1711.01 1964.09,1703.54C1996,1687.52 2022.42,1662.59 2045.96,1636.14C2065.36,1614.34 2086.1,1581.09 2119.52,1583.54C2139.14,1584.99 2141.05,1602.76 2145.72,1618.41C2158.28,1660.59 2177.11,1661.52 2209.06,1628.96C2244.14,1593.22 2285.76,1580.05 2321.02,1579.79C2363.12,1579.58 2399.54,1595.73 2399.54,1623.14C2399.54,1645.73 2384.68,1663.9 2366.62,1676.3C2324.24,1705.47 2271.4,1717.82 2232.15,1751.82C2214.57,1767.04 2171.02,1822.35 2193.4,1848C2221.29,1879.95 2305.83,1804.92 2326.68,1845.65C2338.22,1868.21 2308.21,1882.38 2303.5,1902.18C2298.92,1921.4 2315.39,1933.09 2331.72,1938.26C2386.31,1955.56 2446.59,1962.82 2503.33,1969.56C2517.09,1971.21 2530.91,1972.58 2544.74,1973.6L443.795,1973.6ZM2216.68,523.984C2231.4,495.886 2246.44,456.535 2250.47,412.342C2251.84,397.325 2261.68,399.567 2265.37,405.081L2377.17,565.065C2380.01,570.681 2383.53,579.737 2368.08,574.928C2320.15,560.024 2260.73,548.909 2226.81,544.009C2218.24,542.69 2213.28,530.421 2216.68,523.984ZM1738.65,439.341C1757.47,309.116 1881.17,202.003 2014.39,200.25L2017.46,200.25C2077.1,200.25 2129.98,222.04 2166.36,261.689C2204.89,303.708 2221.17,360.94 2212.23,422.825C2207.17,457.662 2194.58,490.82 2176.32,520.787C2172.55,526.943 2165.21,536.012 2145.61,534.622C2056.96,528.274 1873.7,525.883 1785.81,569.34C1778.68,572.882 1765.74,577.31 1757.93,562.693C1738.98,526.665 1732.14,484.279 1738.65,439.341ZM1205.78,144.661C1169.25,144.661 1127.81,124.166 1127.81,89.244C1127.81,54.327 1169.25,35.658 1244.69,35.658C1296.57,35.658 1357.36,47.002 1415.84,67.598C1514.48,102.261 1581.79,153.269 1611.66,194.641C1616.33,200.898 1610.5,204.739 1604.4,200.971C1436.9,97.836 1287.7,144.661 1205.78,144.661Z" style="fill:#fff;"></path></svg>